<svg width="56" height="57" viewBox="0 0 56 57" fill="none" xmlns="http://www.w3.org/2000/svg">
<path fill-rule="evenodd" clip-rule="evenodd" d="M37.9373 22.8646C38.4367 19.5022 35.8951 17.6946 32.4198 16.4888L33.5471 11.9339L30.7947 11.2429L29.6971 15.6778C28.9735 15.4961 28.2303 15.3248 27.4919 15.155L28.5972 10.691L25.8463 10L24.7182 14.5533C24.1193 14.4159 23.5313 14.28 22.9606 14.1371L22.9637 14.1229L19.1678 13.1682L18.4356 16.1295C18.4356 16.1295 20.4778 16.6009 20.4347 16.6301C21.5495 16.9104 21.751 17.6535 21.7173 18.2426L20.4331 23.4316C20.51 23.4513 20.6095 23.4798 20.7193 23.524L20.626 23.5005L20.6258 23.5005C20.562 23.4844 20.4959 23.4677 20.4284 23.4513L18.6285 30.7203C18.4921 31.0614 18.1463 31.5731 17.3671 31.3789C17.3945 31.4191 15.3664 30.8758 15.3664 30.8758L14 34.0496L17.5819 34.949C17.9819 35.05 18.3772 35.1538 18.7683 35.2565C19.0287 35.3249 19.2872 35.3928 19.5441 35.4591L18.405 40.0661L21.1544 40.7571L22.2825 36.199C23.0335 36.4044 23.7626 36.5939 24.476 36.7724L23.3518 41.309L26.1043 42L27.2433 37.4017C31.9369 38.2964 35.4663 37.9355 36.9518 33.6595C38.1489 30.2165 36.8923 28.2304 34.4228 26.9354C36.2212 26.5176 37.5759 25.326 37.9373 22.8646ZM31.6484 31.7476C30.868 34.9064 25.9595 33.6005 23.7136 33.003L23.7134 33.0029C23.5114 32.9492 23.3309 32.9012 23.177 32.8627L24.6884 26.7593C24.876 26.8064 25.1051 26.8582 25.3647 26.9169L25.3647 26.9169C27.6876 27.4419 32.448 28.5179 31.6484 31.7476ZM25.8314 24.0845C27.7039 24.5878 31.7883 25.6858 32.4998 22.8148C33.2263 19.8783 29.2566 18.9931 27.3178 18.5608C27.0997 18.5121 26.9074 18.4692 26.7502 18.4298L25.3799 23.9654C25.5093 23.9979 25.6612 24.0387 25.8314 24.0845Z" fill="#F7931A"/>
<g filter="url(#filter0_bdiii_5_365)">
<rect x="4" y="2" width="48" height="48" rx="12" fill="#2E2E2E" fill-opacity="0.528834"/>
</g>
<g opacity="0.526327" filter="url(#filter1_f_5_365)">
<path fill-rule="evenodd" clip-rule="evenodd" d="M41.9373 26.8646C42.4367 23.5022 39.8951 21.6946 36.4198 20.4888L37.5471 15.9339L34.7947 15.2429L33.6971 19.6778C32.9735 19.4961 32.2303 19.3248 31.4919 19.155L32.5972 14.691L29.8463 14L28.7182 18.5533C28.1193 18.4159 27.5313 18.28 26.9606 18.1371L26.9637 18.1229L23.1678 17.1682L22.4356 20.1295C22.4356 20.1295 24.4778 20.6009 24.4347 20.6301C25.5495 20.9104 25.751 21.6535 25.7173 22.2426L24.4331 27.4316C24.51 27.4513 24.6095 27.4798 24.7193 27.524L24.626 27.5005L24.6258 27.5005C24.562 27.4844 24.4959 27.4677 24.4284 27.4513L22.6285 34.7203C22.4921 35.0614 22.1463 35.5731 21.3671 35.3789C21.3945 35.4191 19.3664 34.8758 19.3664 34.8758L18 38.0496L21.5819 38.949C21.9819 39.05 22.3772 39.1538 22.7683 39.2565C23.0287 39.3249 23.2872 39.3928 23.5441 39.4591L22.405 44.0661L25.1544 44.7571L26.2825 40.199C27.0335 40.4044 27.7626 40.5939 28.476 40.7724L27.3518 45.309L30.1043 46L31.2433 41.4017C35.9369 42.2964 39.4663 41.9355 40.9518 37.6595C42.1489 34.2165 40.8923 32.2304 38.4228 30.9354C40.2212 30.5176 41.5759 29.326 41.9373 26.8646ZM35.6484 35.7476C34.868 38.9064 29.9595 37.6005 27.7136 37.003L27.7134 37.0029C27.5114 36.9492 27.3309 36.9012 27.177 36.8627L28.6884 30.7593C28.876 30.8064 29.1051 30.8582 29.3647 30.9169L29.3647 30.9169C31.6876 31.4419 36.448 32.5179 35.6484 35.7476ZM29.8314 28.0845C31.7039 28.5878 35.7883 29.6858 36.4998 26.8148C37.2263 23.8783 33.2566 22.9931 31.3178 22.5608C31.0997 22.5121 30.9074 22.4692 30.7502 22.4298L29.3799 27.9654C29.5093 27.9979 29.6612 28.0387 29.8314 28.0845Z" fill="#F7931A"/>
</g>
<g filter="url(#filter2_d_5_365)">
<path fill-rule="evenodd" clip-rule="evenodd" d="M37.9373 22.8646C38.4367 19.5022 35.8951 17.6946 32.4198 16.4888L33.5471 11.9339L30.7947 11.2429L29.6971 15.6778C28.9735 15.4961 28.2303 15.3248 27.4919 15.155L28.5972 10.691L25.8463 10L24.7182 14.5533C24.1193 14.4159 23.5313 14.28 22.9606 14.1371L22.9637 14.1229L19.1678 13.1682L18.4356 16.1295C18.4356 16.1295 20.4778 16.6009 20.4347 16.6301C21.5495 16.9104 21.751 17.6535 21.7173 18.2426L20.4331 23.4316C20.51 23.4513 20.6095 23.4798 20.7193 23.524L20.626 23.5005L20.6258 23.5005C20.562 23.4844 20.4959 23.4677 20.4284 23.4513L18.6285 30.7203C18.4921 31.0614 18.1463 31.5731 17.3671 31.3789C17.3945 31.4191 15.3664 30.8758 15.3664 30.8758L14 34.0496L17.5819 34.949C17.9819 35.05 18.3772 35.1538 18.7683 35.2565C19.0287 35.3249 19.2872 35.3928 19.5441 35.4591L18.405 40.0661L21.1544 40.7571L22.2825 36.199C23.0335 36.4044 23.7626 36.5939 24.476 36.7724L23.3518 41.309L26.1043 42L27.2433 37.4017C31.9369 38.2964 35.4663 37.9355 36.9518 33.6595C38.1489 30.2165 36.8923 28.2304 34.4228 26.9354C36.2212 26.5176 37.5759 25.326 37.9373 22.8646ZM31.6484 31.7476C30.868 34.9064 25.9595 33.6005 23.7136 33.003L23.7134 33.0029C23.5114 32.9492 23.3309 32.9012 23.177 32.8627L24.6884 26.7593C24.876 26.8064 25.1051 26.8582 25.3647 26.9169L25.3647 26.9169C27.6876 27.4419 32.448 28.5179 31.6484 31.7476ZM25.8314 24.0845C27.7039 24.5878 31.7883 25.6858 32.4998 22.8148C33.2263 19.8783 29.2566 18.9931 27.3178 18.5608C27.0997 18.5121 26.9074 18.4692 26.7502 18.4298L25.3799 23.9654C25.5093 23.9979 25.6612 24.0387 25.8314 24.0845Z" fill="#F7931A"/>
</g>
<defs>
<filter id="filter0_bdiii_5_365" x="-6.87313" y="-8.87313" width="69.7463" height="69.7463" filterUnits="userSpaceOnUse" color-interpolation-filters="sRGB">
<feFlood flood-opacity="0" result="BackgroundImageFix"/>
<feGaussianBlur in="BackgroundImage" stdDeviation="5.43656"/>
<feComposite in2="SourceAlpha" operator="in" result="effect1_backgroundBlur_5_365"/>
<feColorMatrix in="SourceAlpha" type="matrix" values="0 0 0 0 0 0 0 0 0 0 0 0 0 0 0 0 0 0 127 0" result="hardAlpha"/>
<feOffset dy="2"/>
<feGaussianBlur stdDeviation="2"/>
<feColorMatrix type="matrix" values="0 0 0 0 0 0 0 0 0 0 0 0 0 0 0 0 0 0 0.531262 0"/>
<feBlend mode="normal" in2="effect1_backgroundBlur_5_365" result="effect2_dropShadow_5_365"/>
<feBlend mode="normal" in="SourceGraphic" in2="effect2_dropShadow_5_365" result="shape"/>
<feColorMatrix in="SourceAlpha" type="matrix" values="0 0 0 0 0 0 0 0 0 0 0 0 0 0 0 0 0 0 127 0" result="hardAlpha"/>
<feOffset dx="4" dy="4"/>
<feGaussianBlur stdDeviation="10"/>
<feComposite in2="hardAlpha" operator="arithmetic" k2="-1" k3="1"/>
<feColorMatrix type="matrix" values="0 0 0 0 1 0 0 0 0 1 0 0 0 0 1 0 0 0 0.04 0"/>
<feBlend mode="normal" in2="shape" result="effect3_innerShadow_5_365"/>
<feColorMatrix in="SourceAlpha" type="matrix" values="0 0 0 0 0 0 0 0 0 0 0 0 0 0 0 0 0 0 127 0" result="hardAlpha"/>
<feOffset dx="-4" dy="-4"/>
<feGaussianBlur stdDeviation="12"/>
<feComposite in2="hardAlpha" operator="arithmetic" k2="-1" k3="1"/>
<feColorMatrix type="matrix" values="0 0 0 0 0 0 0 0 0 0 0 0 0 0 0 0 0 0 0.32 0"/>
<feBlend mode="normal" in2="effect3_innerShadow_5_365" result="effect4_innerShadow_5_365"/>
<feColorMatrix in="SourceAlpha" type="matrix" values="0 0 0 0 0 0 0 0 0 0 0 0 0 0 0 0 0 0 127 0" result="hardAlpha"/>
<feOffset dx="1" dy="1"/>
<feGaussianBlur stdDeviation="4"/>
<feComposite in2="hardAlpha" operator="arithmetic" k2="-1" k3="1"/>
<feColorMatrix type="matrix" values="0 0 0 0 1 0 0 0 0 1 0 0 0 0 1 0 0 0 0.04 0"/>
<feBlend mode="normal" in2="effect4_innerShadow_5_365" result="effect5_innerShadow_5_365"/>
</filter>
<filter id="filter1_f_5_365" x="7.12687" y="3.12687" width="45.7463" height="53.7463" filterUnits="userSpaceOnUse" color-interpolation-filters="sRGB">
<feFlood flood-opacity="0" result="BackgroundImageFix"/>
<feBlend mode="normal" in="SourceGraphic" in2="BackgroundImageFix" result="shape"/>
<feGaussianBlur stdDeviation="5.43656" result="effect1_foregroundBlur_5_365"/>
</filter>
<filter id="filter2_d_5_365" x="10" y="4" width="32" height="40" filterUnits="userSpaceOnUse" color-interpolation-filters="sRGB">
<feFlood flood-opacity="0" result="BackgroundImageFix"/>
<feColorMatrix in="SourceAlpha" type="matrix" values="0 0 0 0 0 0 0 0 0 0 0 0 0 0 0 0 0 0 127 0" result="hardAlpha"/>
<feOffset dy="-2"/>
<feGaussianBlur stdDeviation="2"/>
<feColorMatrix type="matrix" values="0 0 0 0 0 0 0 0 0 0 0 0 0 0 0 0 0 0 0.53 0"/>
<feBlend mode="normal" in2="BackgroundImageFix" result="effect1_dropShadow_5_365"/>
<feBlend mode="normal" in="SourceGraphic" in2="effect1_dropShadow_5_365" result="shape"/>
</filter>
</defs>
</svg>
