<svg width="59" height="56" viewBox="0 0 59 56" fill="none" xmlns="http://www.w3.org/2000/svg">
<path fill-rule="evenodd" clip-rule="evenodd" d="M39.107 16.0937C37.0356 15.1156 34.8208 14.4048 32.5052 14C32.2208 14.5189 31.8886 15.2168 31.6595 15.772C29.198 15.3984 26.7591 15.3984 24.3429 15.772C24.1139 15.2168 23.7741 14.5189 23.4871 14C21.1691 14.4048 18.9517 15.1182 16.8803 16.0989C12.7022 22.4709 11.5696 28.6845 12.1359 34.81C14.907 36.8985 17.5925 38.1672 20.2328 38.9974C20.8847 38.092 21.466 37.1294 21.9669 36.115C21.013 35.7492 20.0994 35.2978 19.2361 34.7737C19.4651 34.6024 19.6891 34.4234 19.9056 34.2392C25.1709 36.7247 30.8919 36.7247 36.0943 34.2392C36.3133 34.4234 36.5373 34.6024 36.7638 34.7737C35.898 35.3003 34.9818 35.7518 34.0279 36.1176C34.5288 37.1294 35.1077 38.0946 35.7621 39C38.4048 38.1698 41.0929 36.9011 43.864 34.81C44.5285 27.709 42.7289 21.5524 39.107 16.0937ZM22.6842 31.0429C21.1036 31.0429 19.8074 29.5537 19.8074 27.7402C19.8074 25.9266 21.0759 24.4349 22.6842 24.4349C24.2926 24.4349 25.5887 25.924 25.5611 27.7402C25.5636 29.5537 24.2926 31.0429 22.6842 31.0429ZM30.4388 27.7402C30.4388 29.5537 31.7351 31.0429 33.3157 31.0429C34.9239 31.0429 36.1925 29.5537 36.1925 27.7402C36.2202 25.924 34.9239 24.4349 33.3157 24.4349C31.7073 24.4349 30.4388 25.9266 30.4388 27.7402Z" fill="#5865F2"/>
<g filter="url(#filter0_bdiii_5_402)">
<rect x="4" y="2" width="48" height="48" rx="12" fill="#2E2E2E" fill-opacity="0.528834"/>
</g>
<g opacity="0.526327" filter="url(#filter1_f_5_402)">
<path fill-rule="evenodd" clip-rule="evenodd" d="M43.107 20.0937C41.0356 19.1156 38.8208 18.4048 36.5052 18C36.2208 18.5189 35.8886 19.2168 35.6595 19.772C33.198 19.3984 30.7591 19.3984 28.3429 19.772C28.1139 19.2168 27.7741 18.5189 27.4871 18C25.1691 18.4048 22.9517 19.1182 20.8803 20.0989C16.7022 26.4709 15.5696 32.6845 16.1359 38.81C18.907 40.8985 21.5925 42.1672 24.2328 42.9974C24.8847 42.092 25.466 41.1294 25.9669 40.115C25.013 39.7492 24.0994 39.2978 23.2361 38.7737C23.4651 38.6024 23.6891 38.4234 23.9056 38.2392C29.1709 40.7247 34.8919 40.7247 40.0943 38.2392C40.3133 38.4234 40.5373 38.6024 40.7638 38.7737C39.898 39.3003 38.9818 39.7518 38.0279 40.1176C38.5288 41.1294 39.1077 42.0946 39.7621 43C42.4048 42.1698 45.0929 40.9011 47.864 38.81C48.5285 31.709 46.7289 25.5524 43.107 20.0937ZM26.6842 35.0429C25.1036 35.0429 23.8074 33.5537 23.8074 31.7402C23.8074 29.9266 25.0759 28.4349 26.6842 28.4349C28.2926 28.4349 29.5887 29.924 29.5611 31.7402C29.5636 33.5537 28.2926 35.0429 26.6842 35.0429ZM34.4388 31.7402C34.4388 33.5537 35.7351 35.0429 37.3157 35.0429C38.9239 35.0429 40.1925 33.5537 40.1925 31.7402C40.2202 29.924 38.9239 28.4349 37.3157 28.4349C35.7073 28.4349 34.4388 29.9266 34.4388 31.7402Z" fill="#5865F2"/>
</g>
<g filter="url(#filter2_d_5_402)">
<path fill-rule="evenodd" clip-rule="evenodd" d="M39.107 16.0937C37.0356 15.1156 34.8208 14.4048 32.5052 14C32.2208 14.5189 31.8886 15.2168 31.6595 15.772C29.198 15.3984 26.7591 15.3984 24.3429 15.772C24.1139 15.2168 23.7741 14.5189 23.4871 14C21.1691 14.4048 18.9517 15.1182 16.8803 16.0989C12.7022 22.4709 11.5696 28.6845 12.1359 34.81C14.907 36.8985 17.5925 38.1672 20.2328 38.9974C20.8847 38.092 21.466 37.1294 21.9669 36.115C21.013 35.7492 20.0994 35.2978 19.2361 34.7737C19.4651 34.6024 19.6891 34.4234 19.9056 34.2392C25.1709 36.7247 30.8919 36.7247 36.0943 34.2392C36.3133 34.4234 36.5373 34.6024 36.7638 34.7737C35.898 35.3003 34.9818 35.7518 34.0279 36.1176C34.5288 37.1294 35.1077 38.0946 35.7621 39C38.4048 38.1698 41.0929 36.9011 43.864 34.81C44.5285 27.709 42.7289 21.5524 39.107 16.0937ZM22.6842 31.0429C21.1036 31.0429 19.8074 29.5537 19.8074 27.7402C19.8074 25.9266 21.0759 24.4349 22.6842 24.4349C24.2926 24.4349 25.5887 25.924 25.5611 27.7402C25.5636 29.5537 24.2926 31.0429 22.6842 31.0429ZM30.4388 27.7402C30.4388 29.5537 31.7351 31.0429 33.3157 31.0429C34.9239 31.0429 36.1925 29.5537 36.1925 27.7402C36.2202 25.924 34.9239 24.4349 33.3157 24.4349C31.7073 24.4349 30.4388 25.9266 30.4388 27.7402Z" fill="#5865F2"/>
</g>
<defs>
<filter id="filter0_bdiii_5_402" x="-6.87313" y="-8.87313" width="69.7463" height="69.7463" filterUnits="userSpaceOnUse" color-interpolation-filters="sRGB">
<feFlood flood-opacity="0" result="BackgroundImageFix"/>
<feGaussianBlur in="BackgroundImage" stdDeviation="5.43656"/>
<feComposite in2="SourceAlpha" operator="in" result="effect1_backgroundBlur_5_402"/>
<feColorMatrix in="SourceAlpha" type="matrix" values="0 0 0 0 0 0 0 0 0 0 0 0 0 0 0 0 0 0 127 0" result="hardAlpha"/>
<feOffset dy="2"/>
<feGaussianBlur stdDeviation="2"/>
<feColorMatrix type="matrix" values="0 0 0 0 0 0 0 0 0 0 0 0 0 0 0 0 0 0 0.531262 0"/>
<feBlend mode="normal" in2="effect1_backgroundBlur_5_402" result="effect2_dropShadow_5_402"/>
<feBlend mode="normal" in="SourceGraphic" in2="effect2_dropShadow_5_402" result="shape"/>
<feColorMatrix in="SourceAlpha" type="matrix" values="0 0 0 0 0 0 0 0 0 0 0 0 0 0 0 0 0 0 127 0" result="hardAlpha"/>
<feOffset dx="4" dy="4"/>
<feGaussianBlur stdDeviation="10"/>
<feComposite in2="hardAlpha" operator="arithmetic" k2="-1" k3="1"/>
<feColorMatrix type="matrix" values="0 0 0 0 1 0 0 0 0 1 0 0 0 0 1 0 0 0 0.04 0"/>
<feBlend mode="normal" in2="shape" result="effect3_innerShadow_5_402"/>
<feColorMatrix in="SourceAlpha" type="matrix" values="0 0 0 0 0 0 0 0 0 0 0 0 0 0 0 0 0 0 127 0" result="hardAlpha"/>
<feOffset dx="-4" dy="-4"/>
<feGaussianBlur stdDeviation="12"/>
<feComposite in2="hardAlpha" operator="arithmetic" k2="-1" k3="1"/>
<feColorMatrix type="matrix" values="0 0 0 0 0 0 0 0 0 0 0 0 0 0 0 0 0 0 0.32 0"/>
<feBlend mode="normal" in2="effect3_innerShadow_5_402" result="effect4_innerShadow_5_402"/>
<feColorMatrix in="SourceAlpha" type="matrix" values="0 0 0 0 0 0 0 0 0 0 0 0 0 0 0 0 0 0 127 0" result="hardAlpha"/>
<feOffset dx="1" dy="1"/>
<feGaussianBlur stdDeviation="4"/>
<feComposite in2="hardAlpha" operator="arithmetic" k2="-1" k3="1"/>
<feColorMatrix type="matrix" values="0 0 0 0 1 0 0 0 0 1 0 0 0 0 1 0 0 0 0.04 0"/>
<feBlend mode="normal" in2="effect4_innerShadow_5_402" result="effect5_innerShadow_5_402"/>
</filter>
<filter id="filter1_f_5_402" x="5.12687" y="7.12687" width="53.7463" height="46.7463" filterUnits="userSpaceOnUse" color-interpolation-filters="sRGB">
<feFlood flood-opacity="0" result="BackgroundImageFix"/>
<feBlend mode="normal" in="SourceGraphic" in2="BackgroundImageFix" result="shape"/>
<feGaussianBlur stdDeviation="5.43656" result="effect1_foregroundBlur_5_402"/>
</filter>
<filter id="filter2_d_5_402" x="8" y="8" width="40" height="33" filterUnits="userSpaceOnUse" color-interpolation-filters="sRGB">
<feFlood flood-opacity="0" result="BackgroundImageFix"/>
<feColorMatrix in="SourceAlpha" type="matrix" values="0 0 0 0 0 0 0 0 0 0 0 0 0 0 0 0 0 0 127 0" result="hardAlpha"/>
<feOffset dy="-2"/>
<feGaussianBlur stdDeviation="2"/>
<feColorMatrix type="matrix" values="0 0 0 0 0 0 0 0 0 0 0 0 0 0 0 0 0 0 0.53 0"/>
<feBlend mode="normal" in2="BackgroundImageFix" result="effect1_dropShadow_5_402"/>
<feBlend mode="normal" in="SourceGraphic" in2="effect1_dropShadow_5_402" result="shape"/>
</filter>
</defs>
</svg>
